<svg id="Ebene_1" data-name="Ebene 1" xmlns="http://www.w3.org/2000/svg" viewBox="0 0 178.1 160.7"><defs><style>.cls-1{fill:#5b6c72}.cls-2{fill:#0093d0}.cls-3{fill:#ed6e41}</style></defs><title>Zeichenfläche 1 Kopie</title><path class="cls-1" d="M123 76.14a1.5 1.5 0 0 1-.34-3 59.47 59.47 0 0 0 7.12-2.53c1.3-.52 2.32-.94 2.92-1.11a7.58 7.58 0 0 1 5.83.33 9.54 9.54 0 0 1 4 4.06 1.5 1.5 0 0 1-2.68 1.35 6.47 6.47 0 0 0-2.7-2.75 4.54 4.54 0 0 0-3.59-.1c-.45.13-1.51.56-2.63 1a61.33 61.33 0 0 1-7.54 2.67 1.52 1.52 0 0 1-.39.08z" id="_Gruppe_" data-name="&lt;Gruppe&gt;"/><path class="cls-1" d="M119.3 146.76a1.5 1.5 0 0 1-1.49-1.51l.05-9.55a16.92 16.92 0 0 1 10.7-15.76 10.91 10.91 0 0 1 4.16-.81l19.58.64a8.69 8.69 0 0 0 2.31-.18c3.1-.74 4.69-2.94 4.86-6.7a4.26 4.26 0 0 1 .38-2.83 3.84 3.84 0 0 1 1-1.17 9.14 9.14 0 0 0 1.84-2.75 21 21 0 0 0 2-8.16 1.5 1.5 0 0 1 .29-.79 11.25 11.25 0 0 0 2.06-4.27 2.16 2.16 0 0 0-1.33-2.44 3.38 3.38 0 0 0-1.83-.4 4.44 4.44 0 0 1-.56 0 1.5 1.5 0 0 1-.92-.34l-.18-.15c-2.72-2.26-7.79-6.47-10.46-12a20.25 20.25 0 0 1-2-6.88 20.09 20.09 0 0 0-7.54-13.83c-.83-.65-1.68-1.29-2.55-1.93A53.26 53.26 0 0 0 119 45.56a1.5 1.5 0 1 1 .61-2.94 56.28 56.28 0 0 1 21.92 9.91c.88.65 1.76 1.32 2.6 2a23.1 23.1 0 0 1 8.68 15.9 17.31 17.31 0 0 0 1.68 5.88c2.3 4.79 6.79 8.62 9.4 10.78a6.46 6.46 0 0 1 3 .63 5.19 5.19 0 0 1 3.11 5.85 13.93 13.93 0 0 1-2.31 5 22.84 22.84 0 0 1-2.35 9 11 11 0 0 1-2.59 3.64.94.94 0 0 0-.27.28 1.51 1.51 0 0 0 0 .9 2.11 2.11 0 0 1 0 .46c-.18 5.15-2.73 8.57-7.16 9.63a11.52 11.52 0 0 1-3.11.27l-19.58-.64a8.2 8.2 0 0 0-3 .62 13.91 13.91 0 0 0-8.76 13l-.05 9.55a1.5 1.5 0 0 1-1.52 1.48z" id="_Gruppe_2" data-name="&lt;Gruppe&gt;"/><path class="cls-1" d="M80 47.25a1.5 1.5 0 0 1-1.43-2c.34-1 8.36-25.64 20.82-35a4.94 4.94 0 0 1 4.62-.7 5.05 5.05 0 0 1 3.23 3.52c2.69 10.51 7.25 28.71 7.62 32.5a1.5 1.5 0 1 1-3 .29c-.26-2.63-3-14.31-7.54-32.06a2.06 2.06 0 0 0-1.32-1.39 1.92 1.92 0 0 0-1.82.27C89.53 21.47 81.54 46 81.46 46.21A1.5 1.5 0 0 1 80 47.25z" id="_Gruppe_3" data-name="&lt;Gruppe&gt;"/><path class="cls-1" d="M74.76 52.07a1.5 1.5 0 0 1-1.06-2.57c1.77-1.77 3.58-3.42 5.37-4.91A1.5 1.5 0 1 1 81 46.9c-1.72 1.43-3.46 3-5.17 4.73a1.5 1.5 0 0 1-1.07.44z" id="_Gruppe_4" data-name="&lt;Gruppe&gt;"/><path class="cls-1" d="M123 45.69a1.5 1.5 0 0 1-1.49-1.36c-.79-8.64-3.85-19.3-5.6-24.89a.92.92 0 0 0-1.61-.28l-4.53 6a1.5 1.5 0 1 1-2.39-1.81l4.53-6a3.92 3.92 0 0 1 6.87 1.2c1.79 5.7 4.9 16.6 5.72 25.51a1.5 1.5 0 0 1-1.36 1.63z" id="_Gruppe_5" data-name="&lt;Gruppe&gt;"/><path class="cls-1" d="M97 47.25a1.5 1.5 0 0 1-1.49-1.35 63.57 63.57 0 0 1 6.74-35.62 1.5 1.5 0 0 1 2.65 1.41 60.48 60.48 0 0 0-6.44 33.91 1.5 1.5 0 0 1-1.34 1.64z" id="_Gruppe_6" data-name="&lt;Gruppe&gt;"/><path class="cls-1" d="M149 85.88a1.5 1.5 0 0 1-.92-.31l-.7-.53A22.31 22.31 0 0 1 142.1 80a6.31 6.31 0 0 1-3.1 2.71 5.91 5.91 0 0 1-6.33-1.12 5.42 5.42 0 0 1-.84-1 1.5 1.5 0 0 1 2.48-1.59 2.43 2.43 0 0 0 .38.44 2.9 2.9 0 0 0 3.15.53 3.25 3.25 0 0 0 2.06-2.87 13.52 13.52 0 0 0 0-1.73 1.5 1.5 0 0 1 2.9-.67 19.13 19.13 0 0 0 1.48 3.1 18 18 0 0 0 4.93 4.86l.75.56a1.5 1.5 0 0 1-.92 2.69z" id="_Gruppe_7" data-name="&lt;Gruppe&gt;"/><path class="cls-1" d="M152.83 113.69h-1.35l-11.43-.57a1.5 1.5 0 0 1 .15-3l11.43.57a23.78 23.78 0 0 0 9-1.3 1.5 1.5 0 0 1 1 2.83 26.76 26.76 0 0 1-8.8 1.47z" id="_Gruppe_8" data-name="&lt;Gruppe&gt;"/><path class="cls-1" d="M166.17 100a1.49 1.49 0 0 1-.72-.18c-8.83-4.83-9.16-10.54-9.17-10.78a1.5 1.5 0 0 1 1.59-1.56 22.46 22.46 0 0 0 5.2-.39 1.5 1.5 0 0 1 .62 2.94 26 26 0 0 1-3.94.46c.73 1.6 2.56 4.19 7.13 6.7a1.5 1.5 0 0 1-.72 2.82z" id="_Gruppe_9" data-name="&lt;Gruppe&gt;"/><path class="cls-1" d="M69.25 147.33a1.5 1.5 0 0 1-1.5-1.5v-44.14c0-8.28-4.88-17.19-11.1-20.29-1.6-.92-3.22-2.62-3.22-4.77a6.31 6.31 0 0 1 3.14-5c5.14-2.55 11.18-7.43 11.18-16.44V12.21a1.5 1.5 0 0 1 3 0v42.95c0 8.35-4.41 14.95-12.76 19.09a3.43 3.43 0 0 0-1.55 2.39 3 3 0 0 0 1.64 2.13c7.19 3.57 12.68 13.45 12.68 22.93v44.14a1.5 1.5 0 0 1-1.51 1.49zm-47.72 0a1.5 1.5 0 0 1-1.5-1.5v-44.14c0-9.48 5.49-19.35 12.76-23a3 3 0 0 0 1.55-2.08 3.45 3.45 0 0 0-1.63-2.43C24.45 70.11 20 63.51 20 55.16V12.21a1.5 1.5 0 1 1 3 0v42.95c0 9 6 13.89 11.1 16.4a6.34 6.34 0 0 1 3.22 5.08 5.81 5.81 0 0 1-3.14 4.72C27.91 84.5 23 93.41 23 101.69v44.14a1.5 1.5 0 0 1-1.47 1.5z"/><path class="cls-1" d="M78.8 13.71H12a1.5 1.5 0 0 1 0-3h66.8a1.5 1.5 0 0 1 0 3zm0 133.62H12a1.5 1.5 0 1 1 0-3h66.8a1.5 1.5 0 0 1 0 3zm-33.41-33.4a1.5 1.5 0 0 1-1.5-1.5V76.64c0-8.23-6.4-10.72-6.67-10.82s-7.64-2.4-7.64-13V40.85a1.5 1.5 0 0 1 2.56-1.06 9 9 0 0 0 6.1 1.95A28.56 28.56 0 0 0 45 40.58a31.24 31.24 0 0 1 7.52-1.24 11.94 11.94 0 0 1 8.22 2.83 1.5 1.5 0 0 1 .44 1.06v9.54c0 10.64-7.42 13-7.73 13.07s-6.58 2.56-6.58 10.79v35.79a1.5 1.5 0 0 1-1.48 1.51zM32.58 43.56v9.22c0 8.32 5.37 10.13 5.6 10.2a14 14 0 0 1 7.21 6.75A13.94 13.94 0 0 1 52.54 63c.3-.1 5.67-1.9 5.67-10.22v-8.84a9.74 9.74 0 0 0-5.66-1.6 28.56 28.56 0 0 0-6.79 1.15 31.24 31.24 0 0 1-7.52 1.24 13.54 13.54 0 0 1-5.66-1.17z"/><path class="cls-2" d="M33.75 44.83v7.91c0 7.14 4.88 8.69 5.09 8.75a12.51 12.51 0 0 1 6.55 5.79 12.48 12.48 0 0 1 6.49-5.77c.27-.08 5.16-1.63 5.16-8.78v-7.56a9.22 9.22 0 0 0-5.14-1.37 27.33 27.33 0 0 0-6.17 1 29.9 29.9 0 0 1-6.83 1.06 12.9 12.9 0 0 1-5.15-1.03z"/><path class="cls-1" d="M59.71 137.79H31.08a1.5 1.5 0 0 1-1.5-1.5V122a1.5 1.5 0 0 1 .67-1.25l14.32-9.54a1.5 1.5 0 0 1 1.66 0l14.32 9.54a1.5 1.5 0 0 1 .67 1.25v14.32a1.5 1.5 0 0 1-1.51 1.47zm-27.13-3h25.63v-12l-12.82-8.54-12.82 8.54z"/><path class="cls-3" d="M33.61 133.76h23.56v-10.15l-11.78-7.81-11.78 7.82z"/></svg>