<svg xmlns="http://www.w3.org/2000/svg" viewBox="0 0 218.07 186.8"><defs><style>.cls-1{fill:#0397d9;stroke-miterlimit:10;stroke-width:2px;stroke:#0397d9}.cls-2{stroke:#0397d9;fill:none;stroke-linecap:round;stroke-linejoin:round;stroke-width:7px}</style></defs><title>elektronisch</title><g id="Layer_2" data-name="Layer 2"><g id="Icons"><path class="cls-1" d="M109 36c-28.2 0-50.29 12.6-50.29 28.68v15.53c0 12.95 14.32 23.63 34.61 27.3v5.21a2 2 0 0 0 2 2h27.36a2 2 0 0 0 2-2v-5.21c20.29-3.68 34.61-14.36 34.61-27.3V64.69C159.32 48.61 137.23 36 109 36zm0 4c25.52 0 46.29 11.07 46.29 24.68a13.5 13.5 0 0 1-.47 3.5C147 58.28 129.67 51.53 109 51.53S71 58.28 63.19 68.2a13.51 13.51 0 0 1-.47-3.5C62.75 51.08 83.51 40 109 40zm34 41.38a2 2 0 0 0-.8.45 60.32 60.32 0 0 1-17.56 6.07v-2.54a2 2 0 0 0-2-2H95.36a2 2 0 0 0-2 2v2.55c-13.3-2.56-23.78-8.29-28.25-15.46C71.22 62.63 88.6 55.53 109 55.53s37.81 7.1 43.93 16.92a27.88 27.88 0 0 1-9.86 8.95zM120.22 101h.49v3a85.93 85.93 0 0 1-23.36 0V92.62a90.64 90.64 0 0 0 23.36 0V97h-.49a2 2 0 1 0 0 4zM109 89.37a84.89 84.89 0 0 1-11.68-.8v-1.21h23.36v1.21a84.9 84.9 0 0 1-11.68.8zm-46.25-9.16a13.51 13.51 0 0 1 .47-3.5C69 84 79.83 89.54 93.36 92v11.43C75.53 100 62.75 90.88 62.75 80.21zm58 30.51H97.36v-2.59a90.64 90.64 0 0 0 23.36 0zm4-9.68h.41a2 2 0 0 0 0-4h-.41V92a64.49 64.49 0 0 0 19.14-6.44l4.55 1.76-2.36 7.68c-5.38 3.82-12.79 6.79-21.37 8.44zm27.21-11.57l.84-2.78a2 2 0 0 0-1.19-2.44l-3.44-1.33a31.64 31.64 0 0 0 6.71-6.22 13.51 13.51 0 0 1 .47 3.5 15.21 15.21 0 0 1-3.42 9.27z"/><ellipse class="cls-1" cx="85.95" cy="95.86" rx="2.02" ry="3.39"/><ellipse class="cls-1" cx="76.47" cy="91.81" rx="2.02" ry="3.39"/><g id="com-monitor"><path class="cls-2" d="M81.67 159.85v23.45m-15.63 0h85.99m-15.63 0v-23.45M19.13 19.13h179.8v109.44H19.13z"/><rect class="cls-2" x="3.5" y="3.5" width="211.07" height="140.71" rx="11.73" ry="11.73"/></g></g></g></svg>