<svg xmlns="http://www.w3.org/2000/svg" viewBox="0 0 96.43 96.43"><defs><style>.cls-1{fill:#0397d9}</style></defs><title>impfen</title><g id="Layer_2" data-name="Layer 2"><g id="Icons"><path class="cls-1" d="M95.84 22.54l-4.2-4.2L78.08 4.79l-4.2-4.2a2 2 0 0 0-2.83 2.83l2.79 2.78-15.62 15.62L55.44 19 50 13.56a2 2 0 0 0-2.83 2.83l4.06 4.06L14.4 57.24a2 2 0 0 0-.51.88A19.59 19.59 0 0 0 17.65 76L.59 93a2 2 0 1 0 2.83 2.83l17.05-17.04a19.53 19.53 0 0 0 12.46 4.49 20.22 20.22 0 0 0 5.38-.74 2 2 0 0 0 .88-.51L76 45.24l4 4.05a2 2 0 0 0 2.83-2.83l-8.26-8.26 15.66-15.61L93 25.37a2 2 0 0 0 2.83-2.83zm-59.1 56.28a15.85 15.85 0 0 1-19.13-19.13L54 23.28l9.57 9.56 6.78 6.78 2.79 2.79zm35-43.44l-1.25-1.25-9.48-9.48L76.67 9 82 14.39l5.36 5.36z"/><path class="cls-1" d="M53.73 32.52l-6.14 6.14-7.05 7.05-7.05 7.05-5.95 5.94a2 2 0 1 0 2.83 2.83L34.88 57l2.26 2.26A2 2 0 1 0 40 56.45l-2.26-2.26 4.2-4.19 2.26 2.26A2 2 0 1 0 47 49.4l-2.26-2.26L49 42.9l2.26 2.26a2 2 0 0 0 2.83-2.83l-2.26-2.26 4.73-4.73a2 2 0 1 0-2.83-2.83zm24.53-17.25a2 2 0 0 0-2.83 0l-8.1 8.1a2 2 0 1 0 2.83 2.83l8.1-8.1a2 2 0 0 0 0-2.83z"/></g></g></svg>