<svg xmlns="http://www.w3.org/2000/svg" viewBox="0 0 100.57 78.71"><defs><style>.cls-1{fill:#0397d9}</style></defs><title>kennzeichnung</title><g id="Layer_2" data-name="Layer 2"><g id="Icons"><path class="cls-1" d="M50.29 0C22.09 0 0 12.6 0 28.68V44.2c0 12.94 14.32 23.62 34.61 27.3v5.21a2 2 0 0 0 2 2H64a2 2 0 0 0 2-2V71.5c20.29-3.68 34.61-14.36 34.61-27.3V28.68C100.57 12.6 78.48 0 50.29 0zm0 4c25.52 0 46.28 11.07 46.28 24.68a13.5 13.5 0 0 1-.47 3.5c-7.83-9.92-25.18-16.67-45.81-16.67s-38 6.75-45.81 16.67a13.51 13.51 0 0 1-.48-3.5C4 15.07 24.76 4 50.29 4zm34 41.38a2 2 0 0 0-.8.45A60.32 60.32 0 0 1 66 51.9v-2.55a2 2 0 0 0-2-2H36.61a2 2 0 0 0-2 2v2.55c-13.3-2.56-23.78-8.29-28.25-15.46 6.11-9.82 23.49-16.92 43.93-16.92s37.81 7.1 43.93 16.92a27.88 27.88 0 0 1-9.9 8.94zM61.47 65H62v3a84.9 84.9 0 0 1-11.68.8 84.89 84.89 0 0 1-11.68-.8V56.6a90 90 0 0 0 11.68.76A90 90 0 0 0 62 56.6V61h-.49a2 2 0 0 0 0 4zM50.29 53.36a84.89 84.89 0 0 1-11.68-.8v-1.21H62v1.21a84.9 84.9 0 0 1-11.71.8zM4 44.2a13.51 13.51 0 0 1 .47-3.5C10.22 48 21.08 53.53 34.61 56v11.41C16.78 64 4 54.87 4 44.2zm58 30.51H38.61v-2.59a90 90 0 0 0 11.68.76A90 90 0 0 0 62 72.12zM66 65h.41a2 2 0 0 0 0-4H66v-5a64.49 64.49 0 0 0 19.1-6.46l4.55 1.76-2.32 7.7C82 62.8 74.54 65.76 66 67.41zm27.18-11.54l.82-2.78a2 2 0 0 0-1.19-2.44l-3.44-1.33a31.64 31.64 0 0 0 6.71-6.22 13.51 13.51 0 0 1 .47 3.5 15.21 15.21 0 0 1-3.37 9.27z"/><ellipse class="cls-1" cx="27.2" cy="59.85" rx="2.02" ry="3.39"/><ellipse class="cls-1" cx="17.72" cy="55.8" rx="2.02" ry="3.39"/></g></g></svg>