<svg id="Ebene_1" data-name="Ebene 1" xmlns="http://www.w3.org/2000/svg" viewBox="0 0 178.1 160.7"><defs><style>.cls-1{fill:#5b6c72}.cls-2{fill:#0093d0}.cls-3{fill:#ed6e41}</style></defs><title>Zeichenfläche 1</title><g id="_Gruppe_" data-name="&lt;Gruppe&gt;"><g id="_Gruppe_2" data-name="&lt;Gruppe&gt;"><path class="cls-1" d="M71.74 108.12h-.22a15.16 15.16 0 0 1-11.34-4.92 20.05 20.05 0 0 1-4.71-14.94 14.41 14.41 0 0 1 3.89-9A28.82 28.82 0 0 1 65.12 75 21.7 21.7 0 0 0 71 70.49a32.31 32.31 0 0 0 3-4.63l.23-.41C75.81 62.57 77.82 59 81.9 57a16.67 16.67 0 0 1 7.94-1.63 16.61 16.61 0 0 1 8 1.44c4.13 1.92 6.22 5.46 7.9 8.3l.25.42A32.28 32.28 0 0 0 109 70a21.72 21.72 0 0 0 6 4.4 28.8 28.8 0 0 1 5.86 4 14.41 14.41 0 0 1 4.1 9 20.05 20.05 0 0 1-4.36 15.05 15.16 15.16 0 0 1-11.22 5.18 38.5 38.5 0 0 1-9.54-1.23 40.8 40.8 0 0 0-8.44-1.19h-1.95a38.86 38.86 0 0 0-8.45 1.45 39.78 39.78 0 0 1-9.26 1.46zm17.44-49.8a13.41 13.41 0 0 0-5.94 1.33c-3 1.49-4.63 4.06-6.42 7.26l-.23.4a35 35 0 0 1-3.23 5.06 24.3 24.3 0 0 1-6.68 5.21 26.18 26.18 0 0 0-5.18 3.73 11.42 11.42 0 0 0-3 7.17 17 17 0 0 0 3.94 12.68 12.07 12.07 0 0 0 9.16 3.94 36.65 36.65 0 0 0 8.77-1.37 41.72 41.72 0 0 1 9.06-1.47h2.18a42.38 42.38 0 0 1 8.94 1.26 36.29 36.29 0 0 0 8.8 1.17 12.07 12.07 0 0 0 9.06-4.15A17 17 0 0 0 122 87.75a11.42 11.42 0 0 0-3.2-7.1 26.19 26.19 0 0 0-5.27-3.65 24.27 24.27 0 0 1-6.8-5.06 35 35 0 0 1-3.34-5l-.25-.42c-1.87-3.16-3.54-5.69-6.59-7.11A13.55 13.55 0 0 0 90 58.33h-.78zm2.24 45.43z" id="_Gruppe_3" data-name="&lt;Gruppe&gt;"/></g><g id="_Gruppe_4" data-name="&lt;Gruppe&gt;"><path class="cls-1" d="M118.08 71.1a9.29 9.29 0 0 1-2.76-.41 1.45 1.45 0 0 1-.33-.06 9.46 9.46 0 0 1-6.49-10.14 16.71 16.71 0 0 1 2-5.3l3.9-7.42c.79-1.51 1.92-3.65 4.07-4.54a3.32 3.32 0 0 1 1.91-.25 3.71 3.71 0 0 1 1.48.7 18.16 18.16 0 0 1 7.36 11.91 14.43 14.43 0 0 1-2.83 11.52 11 11 0 0 1-8.31 3.99zm-2.57-3.46a1.51 1.51 0 0 1 .43.09 7.67 7.67 0 0 0 8.17-2.54 11.6 11.6 0 0 0 2.17-9.13 15.35 15.35 0 0 0-6.14-9.93 2.21 2.21 0 0 0-.3-.19l-.2.07c-1.06.44-1.79 1.7-2.51 3.08l-3.95 7.51a14.23 14.23 0 0 0-1.72 4.34 6.48 6.48 0 0 0 4.05 6.71z" id="_Gruppe_5" data-name="&lt;Gruppe&gt;"/></g><g id="_Gruppe_6" data-name="&lt;Gruppe&gt;"><path class="cls-1" d="M101.07 53.79a11.25 11.25 0 0 1-10.76-8.9 20.21 20.21 0 0 1 .26-6.82l1.6-10.26c.29-1.89.74-4.75 2.79-6.55a3.74 3.74 0 0 1 1.94-1 4.36 4.36 0 0 1 1.84.21 21.88 21.88 0 0 1 13 10.71A17.32 17.32 0 0 1 113 45.4a12.7 12.7 0 0 1-11.17 8.32 1.53 1.53 0 0 1-.37.06zm-3.73-30.52a.93.93 0 0 0-.37.24c-1.14 1-1.5 2.82-1.8 4.76l-1.6 10.26a17.68 17.68 0 0 0-.27 5.81 8.27 8.27 0 0 0 7.7 6.45 1.68 1.68 0 0 1 .48-.07c3.65.06 7.32-2.61 8.77-6.39a14.53 14.53 0 0 0-1.11-11.71 19.12 19.12 0 0 0-11.23-9.23 2.72 2.72 0 0 0-.57-.12z" id="_Gruppe_7" data-name="&lt;Gruppe&gt;"/></g><g id="_Gruppe_8" data-name="&lt;Gruppe&gt;"><path class="cls-1" d="M59.48 72.39a11 11 0 0 1-8.19-3.79 14.44 14.44 0 0 1-3.1-11.45 18.16 18.16 0 0 1 7.08-12.08 3.77 3.77 0 0 1 1.46-.73 3.35 3.35 0 0 1 1.91.2c2.17.84 3.35 3 4.13 4.36l4.13 7.42a16.76 16.76 0 0 1 2.1 5.24 9.46 9.46 0 0 1-6.2 10.29 1.55 1.55 0 0 1-.33.07 9.34 9.34 0 0 1-2.99.47zm-2.16-25.11s-.1.08-.26.2a15.35 15.35 0 0 0-5.9 10.07 11.61 11.61 0 0 0 2.39 9.08A7.66 7.66 0 0 0 61.77 69a1.51 1.51 0 0 1 .43-.1 6.47 6.47 0 0 0 3.88-6.81 14.26 14.26 0 0 0-1.82-4.29l-4.13-7.42c-.75-1.35-1.52-2.6-2.59-3a.75.75 0 0 0-.22-.1z" id="_Gruppe_9" data-name="&lt;Gruppe&gt;"/></g><g id="_Gruppe_10" data-name="&lt;Gruppe&gt;"><path class="cls-1" d="M77.41 54.1H77a1.52 1.52 0 0 1-.37-.06 12.71 12.71 0 0 1-11.14-8.35 17.33 17.33 0 0 1 1.26-14.19 21.88 21.88 0 0 1 13.07-10.67 4.26 4.26 0 0 1 1.84-.21 3.75 3.75 0 0 1 1.93 1c2 1.8 2.48 4.66 2.77 6.56l1.57 10.22a20.2 20.2 0 0 1 .24 6.82 11.25 11.25 0 0 1-10.76 8.88zM77 51a1.5 1.5 0 0 1 .46.07 8.27 8.27 0 0 0 7.73-6.42 17.66 17.66 0 0 0-.19-5.79L83.39 28.6c-.3-1.94-.66-3.76-1.79-4.76a.91.91 0 0 0-.38-.24 2.36 2.36 0 0 0-.56.12A19.12 19.12 0 0 0 69.4 32.9a14.54 14.54 0 0 0-1.15 11.71c1.44 3.78 5.14 6.47 8.75 6.39z" id="_Gruppe_11" data-name="&lt;Gruppe&gt;"/></g></g><path class="cls-1" d="M84.95 124.74h-.12a48.58 48.58 0 0 1-43.92-40.35 1.5 1.5 0 0 1 3-.5 45.58 45.58 0 0 0 41.2 37.86 1.5 1.5 0 0 1-.12 3z" id="_Gruppe_12" data-name="&lt;Gruppe&gt;"/><path class="cls-1" d="M39.33 85.23a26.79 26.79 0 0 1-17.86-6.53C13.08 71.27 12.59 61 12.64 58A1.5 1.5 0 0 1 14 56.52c3-.35 13.27-.9 21.5 6.69 7.53 7 8.41 16 8.44 19.62a1.5 1.5 0 0 1-.39 1l-.71.78a1.5 1.5 0 0 1-1 .49c-.66.08-1.51.13-2.51.13zm2.37-1.61zm-26-24.25c.13 3.63 1.3 11.36 7.75 17.08a24.1 24.1 0 0 0 17.43 5.73c-.13-3.12-1.12-10.92-7.46-16.77s-14.11-6.24-17.76-6.03z" id="_Gruppe_13" data-name="&lt;Gruppe&gt;"/><path class="cls-2" d="M37.57 79.19A19.8 19.8 0 0 1 19 62.38a20.49 20.49 0 0 1 12.42 5.22 20.67 20.67 0 0 1 6.15 11.59z" id="_Gruppe_14" data-name="&lt;Gruppe&gt;"/><path class="cls-1" d="M35.08 115.8a25.48 25.48 0 0 1-2.79-.15c-11.14-1.23-17.48-9.37-19.16-11.83a1.5 1.5 0 0 1 .24-2c2.22-2 10.32-8.39 21.42-6.93 10.16 1.33 16.12 8.25 18.21 11.16a1.5 1.5 0 0 1 .27 1.05l-.13 1a1.5 1.5 0 0 1-.51 1 27.64 27.64 0 0 1-17.55 6.7zM16.4 103.21c2.24 2.89 7.63 8.5 16.22 9.45a24.08 24.08 0 0 0 17.55-5.37A24.11 24.11 0 0 0 34.4 97.9c-8.56-1.12-15.13 3.04-18 5.31zM51.65 108z" id="_Gruppe_15" data-name="&lt;Gruppe&gt;"/><path class="cls-3" d="M38.25 109.56a19.24 19.24 0 0 1-5.32.16 20.5 20.5 0 0 1-12.1-6 22 22 0 0 1 7.49-2.81 19.08 19.08 0 0 1 5.68-.11 20.67 20.67 0 0 1 11.72 5.92 21.82 21.82 0 0 1-7.47 2.84z" id="_Gruppe_16" data-name="&lt;Gruppe&gt;"/><path class="cls-1" d="M53.06 139.81A29.05 29.05 0 0 1 38.91 136a1.5 1.5 0 0 1-.63-1.87c1.15-2.75 5.72-12 16.38-15.46 9.75-3.16 18.1.53 21.24 2.26a1.5 1.5 0 0 1 .7.84l.33 1a1.5 1.5 0 0 1-.05 1.09c-1.46 3.27-5.9 11.25-15.59 14.61a25 25 0 0 1-8.23 1.34zM41.61 134c3.26 1.65 10.54 4.4 18.7 1.58a24.1 24.1 0 0 0 13.55-12.38 24.11 24.11 0 0 0-18.27-1.72c-8.22 2.66-12.37 9.25-13.98 12.52z" id="_Gruppe_17" data-name="&lt;Gruppe&gt;"/><path class="cls-2" d="M56.28 133.57a21.2 21.2 0 0 1-10.43-1 20.47 20.47 0 0 1 10.65-8.27 19.14 19.14 0 0 1 2.7-.66 21.06 21.06 0 0 1 10.42 1 20.66 20.66 0 0 1-10.28 8.17 19.16 19.16 0 0 1-3.06.76z" id="_Gruppe_18" data-name="&lt;Gruppe&gt;"/><path class="cls-1" d="M95 124.74a1.5 1.5 0 0 1-.12-3A45.58 45.58 0 0 0 136 83.89a1.5 1.5 0 0 1 3 .5 48.58 48.58 0 0 1-43.91 40.35z" id="_Gruppe_19" data-name="&lt;Gruppe&gt;"/><path class="cls-1" d="M140.58 85.23c-1 0-1.85-.05-2.51-.11a1.5 1.5 0 0 1-1-.49l-.71-.78a1.5 1.5 0 0 1-.39-1c0-3.58.91-12.67 8.44-19.62 8.23-7.6 18.54-7 21.5-6.69a1.5 1.5 0 0 1 1.36 1.46c.05 3-.43 13.29-8.83 20.72a26.79 26.79 0 0 1-17.86 6.51zm-1.56-3a24.09 24.09 0 0 0 17.43-5.73c6.47-5.72 7.63-13.42 7.79-17.07-3.66-.21-11.43.18-17.77 6s-7.31 13.64-7.47 16.76z" id="_Gruppe_20" data-name="&lt;Gruppe&gt;"/><path class="cls-2" d="M142.34 79.19a19.8 19.8 0 0 0 18.6-16.81 19.8 19.8 0 0 0-18.6 16.81z" id="_Gruppe_21" data-name="&lt;Gruppe&gt;"/><path class="cls-1" d="M144.84 115.8a27.64 27.64 0 0 1-17.55-6.66 1.5 1.5 0 0 1-.51-1l-.13-1a1.5 1.5 0 0 1 .27-1.06c2.09-2.91 8.06-9.83 18.21-11.16 11.1-1.45 19.21 4.94 21.42 6.93a1.5 1.5 0 0 1 .24 2c-1.68 2.47-8 10.6-19.16 11.83a25.49 25.49 0 0 1-2.79.12zm-15.08-8.51a24.1 24.1 0 0 0 17.55 5.38c8.58-.95 14-6.56 16.21-9.45-2.87-2.27-9.44-6.44-18-5.32a24.11 24.11 0 0 0-15.77 9.39z" id="_Gruppe_22" data-name="&lt;Gruppe&gt;"/><path class="cls-3" d="M141.66 109.56a19.24 19.24 0 0 0 5.32.16 20.5 20.5 0 0 0 12.1-6 22 22 0 0 0-7.49-2.81 19.08 19.08 0 0 0-5.68-.11 20.67 20.67 0 0 0-11.72 5.92 21.82 21.82 0 0 0 7.47 2.84z" id="_Gruppe_23" data-name="&lt;Gruppe&gt;"/><path class="cls-1" d="M126.85 139.81a25 25 0 0 1-8.23-1.38c-9.68-3.36-14.12-11.33-15.59-14.61a1.5 1.5 0 0 1-.05-1.09l.33-1a1.5 1.5 0 0 1 .7-.84c3.14-1.73 11.49-5.42 21.24-2.26 10.66 3.45 15.23 12.7 16.38 15.46A1.5 1.5 0 0 1 141 136a29.06 29.06 0 0 1-14.15 3.81zm-20.79-16.6c1.37 2.81 5.4 9.56 13.54 12.39s15.44.07 18.7-1.58c-1.61-3.28-5.76-9.87-14-12.53a24.11 24.11 0 0 0-18.24 1.71z" id="_Gruppe_24" data-name="&lt;Gruppe&gt;"/><path class="cls-2" d="M123.64 133.57a21.2 21.2 0 0 0 10.43-1 20.47 20.47 0 0 0-10.65-8.28 19.13 19.13 0 0 0-2.7-.66 21.06 21.06 0 0 0-10.42 1 20.66 20.66 0 0 0 10.28 8.17 19.15 19.15 0 0 0 3.06.77z" id="_Gruppe_25" data-name="&lt;Gruppe&gt;"/></svg>