<svg id="Ebene_1" data-name="Ebene 1" xmlns="http://www.w3.org/2000/svg" viewBox="0 0 178.1 160.7"><defs><style>.cls-1{fill:#ed6e41}.cls-2{fill:#5b6c72}.cls-3{fill:#0093d0}</style></defs><title>Zeichenfläche 1 Kopie 2</title><path class="cls-1" d="M90.42 134.48v5.28l-21.73-24.99 4.62-3.64h-8.64L52.58 100.2l20.76-6.48 14.13 32.84 2.95 7.92z" id="_Gruppe_" data-name="&lt;Gruppe&gt;"/><path class="cls-2" d="M81.7 87.46A1.5 1.5 0 0 1 80.2 86a1.5 1.5 0 1 1 1.5 1.5z" id="_Gruppe_2" data-name="&lt;Gruppe&gt;"/><path class="cls-2" d="M91.48 91.56a10.78 10.78 0 0 1-1.63-.12 20.11 20.11 0 0 1-2.41-.62 21.1 21.1 0 0 1-6.68-3.68 26.15 26.15 0 0 1-5-5.4 57.69 57.69 0 0 1-7.78-19c0-.14 0-.21-.06-.29a35.83 35.83 0 0 1-.71-7.39v-1a1.5 1.5 0 0 1 .89-1.37 25 25 0 0 0 14.27-17 1.5 1.5 0 0 1 1.48-1.25 1.5 1.5 0 0 1 1.47 1.25c.12.7 3.24 16.84 28.91 17.15a1.5 1.5 0 0 1 1.48 1.5v.71a37.84 37.84 0 0 1-.75 7.58v.08c-.92 4.4-2.46 11.76-7.77 18.79a35.78 35.78 0 0 1-5.33 5.5 22.7 22.7 0 0 1-6.25 3.78 13.15 13.15 0 0 1-2.5.65 12.71 12.71 0 0 1-1.63.13zM70.25 55.07a33.24 33.24 0 0 0 .67 6.88c0 .14 0 .21.06.29a54.6 54.6 0 0 0 7.32 17.85 23.09 23.09 0 0 0 4.35 4.72A18.1 18.1 0 0 0 88.37 88a16.81 16.81 0 0 0 2 .52 8.64 8.64 0 0 0 2.34 0 10.17 10.17 0 0 0 1.83-.52 19.72 19.72 0 0 0 5.46-3.31 33.07 33.07 0 0 0 4.86-5c4.9-6.48 6.3-13.15 7.22-17.57v-.07a34.62 34.62 0 0 0 .69-6.25c-18.59-.68-26-9.67-28.75-15.25a27.89 27.89 0 0 1-13.77 14.52z" id="_Gruppe_3" data-name="&lt;Gruppe&gt;"/><g id="_Gruppe_4" data-name="&lt;Gruppe&gt;"><g id="_Gruppe_5" data-name="&lt;Gruppe&gt;"><path class="cls-2" d="M87 66.49h-9.53a3.29 3.29 0 0 1-3.28-3.29v-3.9a3.29 3.29 0 0 1 3.28-3.3H87a3.3 3.3 0 0 1 3.29 3.29v3.9a3.3 3.3 0 0 1-3.29 3.3zM77.47 59a.29.29 0 0 0-.28.29v3.9a.29.29 0 0 0 .28.29H87a.29.29 0 0 0 .29-.29v-3.9A.29.29 0 0 0 87 59z" id="_Gruppe_6" data-name="&lt;Gruppe&gt;"/><path class="cls-2" d="M105.53 66.49H96a3.3 3.3 0 0 1-3.29-3.29v-3.9A3.3 3.3 0 0 1 96 56h9.52a3.29 3.29 0 0 1 3.28 3.29v3.9a3.29 3.29 0 0 1-3.27 3.3zM96 59a.29.29 0 0 0-.29.29v3.9a.29.29 0 0 0 .29.29h9.52a.29.29 0 0 0 .28-.29v-3.9a.29.29 0 0 0-.28-.29z" id="_Gruppe_7" data-name="&lt;Gruppe&gt;"/><path class="cls-2" d="M94.22 62.23h-5.43a1.5 1.5 0 0 1 0-3h5.43a1.5 1.5 0 0 1 0 3z" id="_Gruppe_8" data-name="&lt;Gruppe&gt;"/></g><path class="cls-2" d="M105.53 66.49H96a3.3 3.3 0 0 1-3.29-3.29v-3.9A3.3 3.3 0 0 1 96 56h9.52a3.29 3.29 0 0 1 3.28 3.29v3.9a3.29 3.29 0 0 1-3.27 3.3zM96 59a.29.29 0 0 0-.29.29v3.9a.29.29 0 0 0 .29.29h9.52a.29.29 0 0 0 .28-.29v-3.9a.29.29 0 0 0-.28-.29z" id="_Gruppe_9" data-name="&lt;Gruppe&gt;"/></g><path class="cls-2" d="M106 97.08a1.49 1.49 0 0 1-.7-.17 11.09 11.09 0 0 1-5.88-11.21 1.5 1.5 0 0 1 .54-1c.36-.3.71-.59 1-.89s.83-.77 1.18-1.12.92-.95 1.29-1.35l.34-.38c.55-.62.89-1.06 1-1.2l.07-.08c.28-.38.57-.77.83-1.15s.55-.82.79-1.21.47-.76.68-1.13c.46-.81.89-1.64 1.31-2.52l.12-.26.25-.56c.12-.26.21-.5.31-.74a38.62 38.62 0 0 0 1.64-4.71l.11-.41c.1-.35.19-.69.28-1 .24-.93.44-1.82.61-2.63.08-.4.16-.8.25-1.19v-.36a34.68 34.68 0 0 0 .63-5.94h-1.81l-1-.08c-.37 0-.73-.06-1.1-.1h-.31l-.75-.09c-.62-.08-1.27-.17-1.92-.27l-.5-.09-.46-.24c-.59-.11-1.19-.24-1.77-.38-.3-.07-.61-.15-.91-.24l-.33-.08-.51-.14-.45-.12-.44-.14-.32-.1h-.1a4.52 4.52 0 0 1-.54-.21l-.19-.07a8.41 8.41 0 0 1-.81-.3l-.53-.21-.15-.06c-.18-.06-.43-.17-.67-.27l-.3-.13-.29-.12-.17-.08-.41-.21c-.6-.29-1.23-.63-2-1.08l-.18-.11a3.68 3.68 0 0 1-.44-.26 6.54 6.54 0 0 1-.57-.37l-.13-.09-.2-.13c-.38-.25-.67-.46-1-.66l-.18-.13c-.24-.18-.42-.33-.6-.48s-.34-.26-.52-.42l-.35-.3-.51-.46-.23-.22-.67-.66c-.27-.27-.49-.5-.69-.73s-.51-.57-.77-.89-.47-.57-.69-.86l-.07-.1c-.39-.52-.76-1.06-1.14-1.66-.13-.22-.26-.42-.37-.62s-.26-.45-.38-.7l-.17-.31c-.08-.16-.16-.31-.21-.44a3.57 3.57 0 0 1-.2-.44l-.05-.12-.12-.26v-.11l-.06-.15c-.05-.13-.11-.25-.15-.37s-.09-.23-.15-.38l-.21-.58v-.25l-.15-.47a1.42 1.42 0 0 1-.06-.16c0-.11-.05-.22-.07-.32s0-.19-.07-.28v-.06a1.76 1.76 0 0 1-.08-.47 1.5 1.5 0 0 1 2.95-.41 2.06 2.06 0 0 1 .09.35 2 2 0 0 1 .05.22v.11c.06.19.13.4.2.64v.06l.09.25.12.34c0 .1.07.2.12.3l.12.31.05.12.16.34.07.16.06.17.05.1a1.4 1.4 0 0 1 .09.19c0 .07.07.15.1.21l.17.31c.13.25.24.45.35.65s.19.33.29.49c.34.54.68 1 1 1.51l.07.11q.26.34.54.67c.23.28.44.53.68.79s.37.41.55.59l.58.58.14.13.54.49.21.18.11.09c.13.12.28.23.42.34l.51.41.14.1.82.57.25.16.15.1.09.07a3.55 3.55 0 0 0 .38.24l.18.12.15.07.23.14c.72.41 1.29.72 1.84 1l.35.17.14.06.31.13.23.1c.23.1.4.18.59.24l.24.1.45.18a6.17 6.17 0 0 0 .63.23l.19.07.3.11.16.07h.16l.35.11.47.15.28.08.37.1.28.08.29.07c.27.08.52.14.78.2.53.13 1.08.25 1.64.35l.55.11.47.09c.55.08 1.18.18 1.82.26l.65.08h.35l1 .09.93.08h3.18a1.5 1.5 0 0 1 1.45 1.5v.71a37.79 37.79 0 0 1-.69 7.22 3.87 3.87 0 0 1-.08.45q-.12.56-.24 1.16c-.19.87-.4 1.79-.65 2.77-.09.35-.19.71-.29 1.08l-.11.42a41.21 41.21 0 0 1-1.73 5c-.12.3-.23.58-.35.85l-.27.61-.13.27c-.47 1-.93 1.87-1.43 2.75-.23.4-.47.8-.73 1.21s-.56.9-.88 1.35-.61.86-.93 1.3l-.1.12c-.16.21-.53.67-1.07 1.29l-.37.41c-.4.44-.87.94-1.39 1.46s-.83.8-1.28 1.21l-.65.58a8.22 8.22 0 0 0 1 4.33 8.35 8.35 0 0 0 3.42 3.31 1.5 1.5 0 0 1-.7 2.83zm-16.61-49.4zm0 0z" id="_Gruppe_10" data-name="&lt;Gruppe&gt;"/><path class="cls-2" d="M81.69 87.47a1.5 1.5 0 0 1-.94-.33c-.38-.31-.75-.63-1.1-1s-.43-.4-.62-.59a21.72 21.72 0 0 1-1.78-1.94c-.37-.44-.72-.89-1-1.31l-.43-.58a51.61 51.61 0 0 1-2.26-3.88 1.4 1.4 0 0 1-.11-.22c-.31-.57-.64-1.22-1-2s-.7-1.52-1-2.3v-.12c-.32-.75-.62-1.51-.93-2.31-.17-.45-.32-.88-.46-1.32s-.28-.83-.43-1.29c-.1-.28-.2-.61-.31-.95l-.49-1.73c-.23-.91-.47-1.87-.67-2.84v-.27a34 34 0 0 1-.55-3.69q-.08-.94-.13-1.87v-2.89a1.5 1.5 0 0 1 .89-1.37 25.32 25.32 0 0 0 5-3 20.7 20.7 0 0 0 1.64-1.34c.25-.23.51-.46.74-.68l.37-.35c.34-.34.65-.69 1-1s.81-1 1.18-1.45l.19-.26.31-.43a23.89 23.89 0 0 0 3.83-8.49 1.51 1.51 0 0 1 1.48-1.24A1.49 1.49 0 0 1 85.38 36a1.52 1.52 0 0 1 0 .3A27 27 0 0 1 81 45.93l-.37.51-.19.25c-.42.56-.85 1.09-1.31 1.62s-.75.83-1.13 1.21l-.37.36c-.26.26-.55.52-.85.79-.64.57-1.24 1.07-1.85 1.52a28 28 0 0 1-4.72 2.88v1.75c0 .59.07 1.16.12 1.74a30.59 30.59 0 0 0 .58 3.44 1.66 1.66 0 0 1 .06.29c.18.89.41 1.78.62 2.61l.46 1.62c.09.3.18.59.28.88.15.47.28.87.42 1.26s.29.85.44 1.24c.3.78.61 1.54.93 2.29v.12c.31.71.63 1.41.94 2.09s.67 1.36 1 2l.07.15c.66 1.25 1.36 2.45 2.08 3.58l.37.5c.27.37.58.77.91 1.16a19.13 19.13 0 0 0 1.57 1.71l.52.5c.33.31.65.59 1 .85a1.5 1.5 0 0 1-.94 2.67zM68 62.65zm0 0zm0-.11z" id="_Gruppe_11" data-name="&lt;Gruppe&gt;"/><path class="cls-2" d="M120 58.24h-.12a1.5 1.5 0 0 1-1.38-1.61c.23-3 .34-5.94.34-8.84a29.23 29.23 0 0 0-27.72-29.54 9.8 9.8 0 0 0-1 0 29.24 29.24 0 0 0-27.77 29.53c0 2.91.12 5.89.34 8.84a1.5 1.5 0 1 1-3 .23c-.23-3-.35-6.08-.35-9.07a32.23 32.23 0 0 1 30.6-32.52h1.28a32.23 32.23 0 0 1 30.62 32.53c0 3-.12 6-.35 9.07a1.5 1.5 0 0 1-1.49 1.38z" id="_Gruppe_12" data-name="&lt;Gruppe&gt;"/><path class="cls-2" d="M75.14 97.72a1.5 1.5 0 0 1-.72-2.81 9.62 9.62 0 0 0 4.39-5.08 9.21 9.21 0 0 0 .38-4.5 1.5 1.5 0 0 1 3-.47 12.23 12.23 0 0 1-.52 6 12.67 12.67 0 0 1-5.77 6.72 1.49 1.49 0 0 1-.76.14z" id="_Gruppe_13" data-name="&lt;Gruppe&gt;"/><path class="cls-2" d="M105.73 22.79a1.5 1.5 0 0 1-1.44-1.93 7.27 7.27 0 0 0 .31-2.1c0-5.5-6.29-10-14-10s-14 4.47-14 10a7.27 7.27 0 0 0 .31 2.1 1.5 1.5 0 0 1-2.87.87 10.28 10.28 0 0 1-.44-3c0-7.15 7.63-13 17-13s17 5.82 17 13a10.28 10.28 0 0 1-.44 3 1.5 1.5 0 0 1-1.43 1.06z" id="_Gruppe_14" data-name="&lt;Gruppe&gt;"/><path class="cls-3" d="M112.26 119.52h26.56v7.37h-26.56z" id="_Gruppe_15" data-name="&lt;Gruppe&gt;"/><path class="cls-3" d="M112.26 129.83h26.56v15.33h-26.56z" id="_Gruppe_16" data-name="&lt;Gruppe&gt;"/><path class="cls-2" d="M91.5 141.37a1.49 1.49 0 0 1-1.13-.52l-21.73-25a1.5 1.5 0 1 1 2.26-2l21.73 25a1.5 1.5 0 0 1-1.13 2.48z" id="_Gruppe_17" data-name="&lt;Gruppe&gt;"/><path class="cls-2" d="M65.77 112.72a1.53 1.53 0 0 1-1-.38l-12.56-11.16a1.5 1.5 0 0 1 2-2.24l12.5 11.12a1.5 1.5 0 0 1-.94 2.66z" id="_Gruppe_18" data-name="&lt;Gruppe&gt;"/><path class="cls-1" d="M129.33 100.3l-12.09 10.92h-8.64l4.62 3.64-21.73 25v-5.28l15.41-41.29 22.43 7.01z" id="_Gruppe_19" data-name="&lt;Gruppe&gt;"/><path class="cls-2" d="M91.49 141.36a1.5 1.5 0 0 1-1.5-1.5v-5.28a1.5 1.5 0 0 1 .09-.52l15.41-41.29a1.5 1.5 0 0 1 1.85-.91l22.43 7a1.5 1.5 0 0 1 .56 2.54l-12.09 10.92a1.5 1.5 0 0 1-1 .39h-4.31l1.22 1a1.5 1.5 0 0 1 .2 2.16l-21.73 25a1.5 1.5 0 0 1-1.13.49zm1.5-6.51v1l18.06-20.78-3.38-2.67a1.5 1.5 0 0 1 .93-2.68h8.06l9.71-8.77-18.57-5.8z" id="_Gruppe_20" data-name="&lt;Gruppe&gt;"/><path class="cls-2" d="M149.89 155.4h-89a1.5 1.5 0 0 1-.91-.31l-25.8-19.68a1.5 1.5 0 0 1-.58-1.31l1.61-19.67a1.51 1.51 0 0 1 0-.2A19.25 19.25 0 0 1 49.6 99.64l23.78-7.58a1.5 1.5 0 0 1 1.84.85l.14.32L92.87 134a1.49 1.49 0 0 1 .12.59v1.27l18.06-20.78-3.38-2.67a1.5 1.5 0 0 1 .93-2.68h8.06l11.66-10.54a1.51 1.51 0 0 1 1.46-.32l2.44.76a19.26 19.26 0 0 1 14.43 14.58 1.4 1.4 0 0 1 0 .14l4.71 39.36a1.5 1.5 0 0 1-1.49 1.68zm-88.54-3h86.85l-4.5-37.61a16.24 16.24 0 0 0-12.2-12.25h-.12l-1.68-.54-11.45 10.35a1.5 1.5 0 0 1-1 .39h-4.31l1.22 1a1.5 1.5 0 0 1 .2 2.16l-21.73 25a1.5 1.5 0 0 1-2.63-1v-5L73 95.33l-22.54 7.18h-.12a16.24 16.24 0 0 0-12.19 12.22l-1.53 18.75z" id="_Gruppe_21" data-name="&lt;Gruppe&gt;"/><path class="cls-2" d="M91.49 150a1.5 1.5 0 0 1-1.5-1.5v-8.68a1.5 1.5 0 1 1 3 0v8.69a1.5 1.5 0 0 1-1.5 1.49z" id="_Gruppe_22" data-name="&lt;Gruppe&gt;"/><g id="_Gruppe_23" data-name="&lt;Gruppe&gt;"><path class="cls-2" d="M58 139a1.5 1.5 0 0 1-1.5-1.5V125a1.5 1.5 0 0 1 3 0v12.54A1.5 1.5 0 0 1 58 139z" id="_Gruppe_24" data-name="&lt;Gruppe&gt;"/><path class="cls-2" d="M64.22 132.76H51.68a1.5 1.5 0 0 1 0-3h12.54a1.5 1.5 0 0 1 0 3z" id="_Gruppe_25" data-name="&lt;Gruppe&gt;"/></g><path class="cls-2" d="M69.77 116.36a1.5 1.5 0 0 1-.93-2.68l1.22-1h-4.3a1.5 1.5 0 0 1 0-3h8.63a1.5 1.5 0 0 1 .93 2.68L70.7 116a1.49 1.49 0 0 1-.93.36z" id="_Gruppe_26" data-name="&lt;Gruppe&gt;"/><path class="cls-2" d="M91.49 141.36a1.5 1.5 0 0 1-1.5-1.49 1.5 1.5 0 1 1 1.5 1.5z" id="_Gruppe_27" data-name="&lt;Gruppe&gt;"/><path class="cls-2" d="M90.74 101.41a20.71 20.71 0 0 1-14.25-5.93 1.5 1.5 0 0 1 2.12-2.12 17.68 17.68 0 0 0 12.55 5 17.38 17.38 0 0 0 11.67-5 1.5 1.5 0 0 1 2.17 2.13 20.43 20.43 0 0 1-13.72 5.92z" id="_Gruppe_28" data-name="&lt;Gruppe&gt;"/></svg>