<svg id="Ebene_1" data-name="Ebene 1" xmlns="http://www.w3.org/2000/svg" viewBox="0 0 178.1 160.7"><defs><style>.cls-1{fill:#5b6c72}.cls-2{fill:#ed6e41}.cls-3{fill:#0093d0}</style></defs><title>Zeichenfläche 1 Kopie 3</title><g id="_Gruppe_" data-name="&lt;Gruppe&gt;"><g id="_Gruppe_2" data-name="&lt;Gruppe&gt;"><path class="cls-1" d="M118.37 152.2h-.15a10.4 10.4 0 0 1-7.78-3.38 13.61 13.61 0 0 1-3.21-10.14 9.92 9.92 0 0 1 2.69-6.23 19.24 19.24 0 0 1 3.86-2.81 13.77 13.77 0 0 0 3.72-2.84 20.61 20.61 0 0 0 1.87-2.94l.16-.28c1.09-1.94 2.44-4.36 5.25-5.75a14.46 14.46 0 0 1 10.84-.13c2.84 1.32 4.25 3.71 5.39 5.62l.15.26a20.76 20.76 0 0 0 1.94 2.91 13.8 13.8 0 0 0 3.78 2.75 19.23 19.23 0 0 1 3.92 2.76 9.92 9.92 0 0 1 2.83 6.16 13.61 13.61 0 0 1-3 10.22 10.4 10.4 0 0 1-7.7 3.56 25.47 25.47 0 0 1-6.35-.81 24.32 24.32 0 0 0-5.4-.76 4.08 4.08 0 0 1-.6 0h-.69a24.94 24.94 0 0 0-5.38.89 26.33 26.33 0 0 1-6.14.94zm11.38-32.49a8.23 8.23 0 0 0-3.65.81c-1.84.91-2.8 2.45-4 4.53l-.15.27a23.2 23.2 0 0 1-2.15 3.37 16.26 16.26 0 0 1-4.5 3.52 16.74 16.74 0 0 0-3.28 2.35 6.93 6.93 0 0 0-1.83 4.36 10.57 10.57 0 0 0 2.43 7.88 7.38 7.38 0 0 0 5.59 2.4 21.29 21.29 0 0 0 5.6-.88 27.59 27.59 0 0 1 6-1h1.43a28.06 28.06 0 0 1 5.94.83 23.1 23.1 0 0 0 5.62.75 7.37 7.37 0 0 0 5.54-2.53 10.57 10.57 0 0 0 2.25-7.94 6.93 6.93 0 0 0-1.93-4.31 16.66 16.66 0 0 0-3.34-2.28 16.25 16.25 0 0 1-4.58-3.41 23.36 23.36 0 0 1-2.24-3.33l-.15-.26c-1.21-2.05-2.22-3.57-4.07-4.43a8.4 8.4 0 0 0-4.05-.71h-.54z" id="_Gruppe_3" data-name="&lt;Gruppe&gt;"/></g><g id="_Gruppe_4" data-name="&lt;Gruppe&gt;"><path class="cls-1" d="M151.18 127.24a6.57 6.57 0 0 1-1.9-.28l-.26-.05a6.71 6.71 0 0 1-4.6-7.19 11.35 11.35 0 0 1 1.38-3.62l2.58-4.9a6.17 6.17 0 0 1 2.89-3.14 2.71 2.71 0 0 1 1.54-.19 2.93 2.93 0 0 1 1.17.54 12.37 12.37 0 0 1 5 8.11 9.94 9.94 0 0 1-2 7.93 7.71 7.71 0 0 1-5.8 2.79zm-1.56-3.29a1.52 1.52 0 0 1 .35.08 4.46 4.46 0 0 0 4.75-1.5A7 7 0 0 0 156 117a9.49 9.49 0 0 0-3.73-6.09 4.35 4.35 0 0 0-1.26 1.7l-2.58 4.9a8.92 8.92 0 0 0-1.07 2.66 3.68 3.68 0 0 0 2.26 3.78z" id="_Gruppe_5" data-name="&lt;Gruppe&gt;"/></g><g id="_Gruppe_6" data-name="&lt;Gruppe&gt;"><path class="cls-1" d="M140.08 115.94a7.88 7.88 0 0 1-7.53-6.23 13.61 13.61 0 0 1 .17-4.63l1-6.69c.21-1.31.51-3.29 2-4.58a3 3 0 0 1 1.53-.75 3.27 3.27 0 0 1 1.42.15 14.81 14.81 0 0 1 8.82 7.25 11.82 11.82 0 0 1 .85 9.68 8.82 8.82 0 0 1-7.7 5.76h-.3zm-2.34-19.89a4.82 4.82 0 0 0-1 2.79l-1 6.69a11.17 11.17 0 0 0-.18 3.62 4.85 4.85 0 0 0 4.45 3.78 1.62 1.62 0 0 1 .39 0h.09a5.83 5.83 0 0 0 5.13-3.83 9 9 0 0 0-.7-7.21 11.94 11.94 0 0 0-7-5.77zm.08-.06z" id="_Gruppe_7" data-name="&lt;Gruppe&gt;"/></g><g id="_Gruppe_8" data-name="&lt;Gruppe&gt;"><path class="cls-1" d="M108.22 128.89a7.73 7.73 0 0 1-5.74-2.65 9.94 9.94 0 0 1-2.15-7.88 12.37 12.37 0 0 1 4.82-8.23 2.92 2.92 0 0 1 1.15-.57 2.7 2.7 0 0 1 1.54.15 6.18 6.18 0 0 1 3 3.08l2.69 4.84a11.37 11.37 0 0 1 1.47 3.59 6.71 6.71 0 0 1-4.43 7.29l-.26.06a6.62 6.62 0 0 1-2.09.32zm-1.33-16.32a9.48 9.48 0 0 0-3.59 6.18 7 7 0 0 0 1.43 5.51 4.47 4.47 0 0 0 4.78 1.39 1.48 1.48 0 0 1 .34-.09 3.68 3.68 0 0 0 2.15-3.84 9 9 0 0 0-1.13-2.64l-2.69-4.84a4.38 4.38 0 0 0-1.29-1.67z" id="_Gruppe_9" data-name="&lt;Gruppe&gt;"/></g><g id="_Gruppe_10" data-name="&lt;Gruppe&gt;"><path class="cls-1" d="M119.91 117h-.32a1.42 1.42 0 0 1-.29 0 8.83 8.83 0 0 1-7.68-5.78 11.82 11.82 0 0 1 .88-9.68 14.8 14.8 0 0 1 8.84-7.21 3.22 3.22 0 0 1 1.42-.15 3 3 0 0 1 1.53.76c1.47 1.3 1.77 3.28 2 4.59l1 6.69a13.58 13.58 0 0 1 .15 4.63 7.88 7.88 0 0 1-7.53 6.15zm-.25-3a1.53 1.53 0 0 1 .36 0 4.85 4.85 0 0 0 4.47-3.77 11.18 11.18 0 0 0-.17-3.62l-1-6.7a4.82 4.82 0 0 0-1-2.79h-.11a11.94 11.94 0 0 0-7 5.74 9 9 0 0 0-.72 7.21 5.75 5.75 0 0 0 5.21 3.85z" id="_Gruppe_11" data-name="&lt;Gruppe&gt;"/></g></g><g id="_Gruppe_12" data-name="&lt;Gruppe&gt;"><path class="cls-1" d="M108.79 33.07a1.5 1.5 0 0 1-1.5-1.5 20.6 20.6 0 1 0-41.2 0 1.5 1.5 0 0 1-3 0 23.6 23.6 0 1 1 47.2 0 1.5 1.5 0 0 1-1.5 1.5z" id="_Gruppe_13" data-name="&lt;Gruppe&gt;"/><path class="cls-1" d="M86.69 43.4a11.82 11.82 0 1 1 11.83-11.83A11.84 11.84 0 0 1 86.69 43.4zm0-20.65a8.82 8.82 0 1 0 8.82 8.82 8.83 8.83 0 0 0-8.82-8.82z" id="_Gruppe_14" data-name="&lt;Gruppe&gt;"/><circle class="cls-2" cx="86.69" cy="31.57" r="5.41" id="_Gruppe_15" data-name="&lt;Gruppe&gt;"/><g id="_Gruppe_16" data-name="&lt;Gruppe&gt;"><path class="cls-1" d="M39.55 68.83a1.49 1.49 0 0 1-.91-.31l-9.32-7.18a1.5 1.5 0 0 1-.27-2.1l7.18-9.33a1.5 1.5 0 0 1 2.1-.27l9.33 7.18a1.5 1.5 0 1 1-1.83 2.38l-8.14-6.27-5.35 6.95 8.14 6.27a1.5 1.5 0 0 1-.92 2.69z" id="_Gruppe_17" data-name="&lt;Gruppe&gt;"/></g><path class="cls-1" d="M20.46 58.56a1.5 1.5 0 0 1-1.19-2.42l11.51-15A1.5 1.5 0 1 1 33.16 43L21.65 58a1.5 1.5 0 0 1-1.19.56z" id="_Gruppe_18" data-name="&lt;Gruppe&gt;"/><g id="_Gruppe_19" data-name="&lt;Gruppe&gt;"><path class="cls-1" d="M132.91 68.83a1.5 1.5 0 0 1-.92-2.69l8.14-6.27-5.35-6.95-8.14 6.27a1.5 1.5 0 1 1-1.83-2.38l9.33-7.18a1.5 1.5 0 0 1 2.1.27l7.18 9.33a1.5 1.5 0 0 1-.27 2.1l-9.32 7.18a1.49 1.49 0 0 1-.92.32z" id="_Gruppe_20" data-name="&lt;Gruppe&gt;"/></g><path class="cls-1" d="M152 58.56a1.49 1.49 0 0 1-1.19-.59l-11.5-15a1.5 1.5 0 1 1 2.38-1.83l11.5 15a1.5 1.5 0 0 1-1.19 2.42z" id="_Gruppe_21" data-name="&lt;Gruppe&gt;"/></g><g id="_Gruppe_22" data-name="&lt;Gruppe&gt;"><path class="cls-3" d="M78 102.27H64.73v-2.79l6-7.55a16.6 16.6 0 0 0 1.83-3 5.63 5.63 0 0 0 .56-2.27 4 4 0 0 0-.54-2.23 1.86 1.86 0 0 0-1.67-.82 2 2 0 0 0-1.8 1 5.12 5.12 0 0 0-.63 2.68h-4.13v-.09a6.84 6.84 0 0 1 1.75-4.9 6.19 6.19 0 0 1 4.83-2 6.39 6.39 0 0 1 4.75 1.7 6.27 6.27 0 0 1 1.68 4.62 7.07 7.07 0 0 1-1 3.63 37 37 0 0 1-3.25 4.43L70.16 99H78z" id="_Gruppe_23" data-name="&lt;Gruppe&gt;"/><path class="cls-3" d="M92.12 94.24h2.06v3.29h-2.06v4.75h-4.21v-4.75h-7.79l-.2-2.53 8-14.28h4.23zm-8.48 0h4.27v-7.8h-.09l-.39.86z" id="_Gruppe_24" data-name="&lt;Gruppe&gt;"/><path class="cls-3" d="M100.5 88.17a5 5 0 0 1 1.5-1.65 3.55 3.55 0 0 1 2-.59 4 4 0 0 1 3.4 1.69 8.8 8.8 0 0 1 1.25 5.2v9.45h-4.18V92.8A6.25 6.25 0 0 0 104 90a1.45 1.45 0 0 0-1.36-.79 2.65 2.65 0 0 0-1.27.29 2.59 2.59 0 0 0-.91.82v11.94h-4.13V79.14h4.17z" id="_Gruppe_25" data-name="&lt;Gruppe&gt;"/></g><path class="cls-1" d="M86.48 150.47a54.75 54.75 0 1 1 54.47-60.34 1.5 1.5 0 1 1-3 .3A51.72 51.72 0 1 0 98.78 146a1.5 1.5 0 1 1 .71 2.91 54.83 54.83 0 0 1-13.01 1.56z" id="_Gruppe_26" data-name="&lt;Gruppe&gt;"/><path class="cls-1" d="M86.48 138.64a42.93 42.93 0 1 1 42.29-50.34 1.5 1.5 0 0 1-3 .52A39.9 39.9 0 1 0 97.74 134a1.5 1.5 0 1 1 .85 2.88 43 43 0 0 1-12.11 1.76z" id="_Gruppe_27" data-name="&lt;Gruppe&gt;"/></svg>