<svg xmlns="http://www.w3.org/2000/svg" viewBox="0 0 99.97 64.33"><defs><style>.cls-1{fill:#0397d9}</style></defs><title>zeck</title><g id="Layer_2" data-name="Layer 2"><path class="cls-1" d="M99 35.51l-13.4-7.72a2 2 0 0 0-1.52-.2l-11 2.95A24.85 24.85 0 0 0 68.41 23l7.39-7.39h14.6a2 2 0 0 0 0-4H75a2 2 0 0 0-1.41.59l-8.09 8a24.93 24.93 0 0 0-2.75-1.93 13 13 0 0 0 .1-1.56A12.86 12.86 0 0 0 58.39 7V2a2 2 0 1 0-4 0v2.62a12.65 12.65 0 0 0-8.86 0V2a2 2 0 1 0-4 0v5a12.86 12.86 0 0 0-4.46 9.73 13 13 0 0 0 .1 1.56 24.92 24.92 0 0 0-2.72 1.91l-8-8a2 2 0 0 0-1.45-.64H9.57a2 2 0 0 0 0 4h14.6l7.37 7.37a24.85 24.85 0 0 0-4.69 7.6l-11-2.94a2 2 0 0 0-1.52.2L1 35.51A2 2 0 1 0 3 39l12.65-7.3 10.05 2.66a24.86 24.86 0 0 0-.26 8.93l-11 2.94a2 2 0 0 0-1.21.93L5.55 60.53a2 2 0 1 0 3.46 2l7.3-12.65 10.05-2.69a24.8 24.8 0 0 0 47.18 0l10.09 2.7L91 62.53a2 2 0 0 0 3.46-2L86.7 47.16a2 2 0 0 0-1.21-.93l-11-2.95a24.86 24.86 0 0 0-.26-8.91l10.09-2.7L97 39a2 2 0 0 0 2-3.46zM50 7.82a8.9 8.9 0 0 1 8.87 8.54 24.73 24.73 0 0 0-17.75 0A8.9 8.9 0 0 1 50 7.82zm0 52.51a20.81 20.81 0 1 1 20.77-20.81A20.83 20.83 0 0 1 50 60.33z" id="Icons"/></g></svg>