<svg xmlns="http://www.w3.org/2000/svg" viewBox="0 0 43.83 40.42"><defs><style>.cls-1{fill:#fff}</style></defs><title>lapa</title><g id="Layer_2" data-name="Layer 2"><path class="cls-1" d="M9.23 33c1-2.72 1.94-3.45 3.47-6.23 2.3-4.19 4.38-7.72 11-7.23 3.86.29 6.79 4.6 8.3 7.46.54 1 1.77 3 2.37 4.17s1.69 3.49.79 5.55S33 39.91 30 40.33c-1.78.25-3.85-.33-7.78-.33s-5.77.41-7.27.42a7.21 7.21 0 0 1-4.19-1.07A5.3 5.3 0 0 1 9.23 33zm3.82-17.83a15 15 0 0 1-3.2-5.71C8.31 4.76 11.14-.39 16.11 0c2.27.21 3.26 2.86 3.89 4.76a35.85 35.85 0 0 1 1.12 5.88c.35 3.49-1.16 6.51-3.81 6.83-1.95.24-3.83-1.65-4.26-2.25zM27.44 1c3.16-.84 6.14 2.27 6.71 5a8.62 8.62 0 0 1-.87 5.54 22 22 0 0 1-2.41 4.05c-1.43 1.93-2.52 2.36-3.5 2.25-1.9-.2-2.66-2.19-3.16-3.7C22.84 10 23.79 1.94 27.44 1zm7.31 24.82c-2.17-1-2.79-4.41-1.82-7.3a9.22 9.22 0 0 1 3.17-4.61c.71-.6 3-2.22 4.89-1.29 5.35 2.6 2.18 10.43-1.61 12.5-1 .51-2.91 1.46-4.63.67zM.2 19.07c-.77-3.07.8-5.8 2.85-6.54a4.94 4.94 0 0 1 4.27.76c2 1.29 3.58 4 4.25 6.68s.29 5.16-2 6C4.81 27.65 1 22.32.2 19.07z" id="Vordergrund"/></g></svg>