<svg xmlns="http://www.w3.org/2000/svg" viewBox="0 0 458.46 133.57"><defs><style>.cls-1,.cls-2{fill:#0093d0}.cls-1,.cls-5{stroke:#0093d0;stroke-miterlimit:3.86;stroke-width:1.42px}.cls-3{clip-path:url(#clip-path)}.cls-4{fill:#fff}.cls-5{fill:none}.cls-6{fill:#231f20}</style><clipPath id="clip-path"><rect class="cls-1" x="27.86" y="7.3" width="68.8" height="125.56" rx="7.28" ry="7.28"/></clipPath></defs><title>logo</title><g id="Layer_2" data-name="Layer 2"><g id="Vordergrund"><rect class="cls-2" x="27.86" y="7.3" width="68.8" height="125.56" rx="7.28" ry="7.28"/><g class="cls-3"><path class="cls-4" d="M0 0h128.66v69.52H0z"/></g><rect class="cls-5" x="27.86" y="7.3" width="68.8" height="125.56" rx="7.28" ry="7.28"/><path class="cls-2" d="M42.55 31.84a1.09 1.09 0 0 1 1.07-1.07h10.77V19.53a1.09 1.09 0 0 1 1.07-1.07H69a1.09 1.09 0 0 1 1.07 1.07v11.24h10.82A1.08 1.08 0 0 1 82 31.84v13.64a1.09 1.09 0 0 1-1.07 1.07H70.1v10.57a1.09 1.09 0 0 1-1.1 1.07H55.45a1.09 1.09 0 0 1-1.07-1.07V46.55H43.63a1.09 1.09 0 0 1-1.07-1.07zm192.23-3.07a13 13 0 0 0-2.57 0c-4.6 0-8 1.13-10 3.47s-3 5.73-3 10.49v21.73h-6.56V44.09c0-7.24 1.51-12.6 4.6-16.15 3.24-3.7 8.45-5.58 15.62-5.58h2zM115.2 13h6.8v8.8h13.2v6H122l.08 24.75a9 9 0 0 0 .53 3.85c.53 1.13 1.66 1.66 3.4 1.66h9.2v6.26h-10.65a8.31 8.31 0 0 1-7.09-3.24 11.9 11.9 0 0 1-2.26-7.62zm37 10v41.46h-6.64V23zm-6.56-10H152v6.41h-6.41zm58.94 37.57c0 6.26-2.11 10.41-6.41 12.6q-4.53 2.26-15.17 2.26c-8.22 0-14-1.51-17.13-4.6s-4.68-8.75-4.68-17 1.59-14 4.68-17.05 8.83-4.6 17.05-4.6 13.88 1.58 17 4.75 4.6 8.9 4.68 17.13c0 .76-.38 1.13-1.06 1.13h-35.43c0 6.26 1.13 10.19 3.4 11.92C173.09 58.35 176.94 59 183 59c5 0 8.22-.3 9.81-.83 3.09-1.13 4.6-3.62 4.6-7.55zm-7.85-11.09c.75 0 1.13-.45 1.06-1.36-.3-4.07-1.89-6.79-4.83-8.22-2-1-5.28-1.43-10-1.43-6.19 0-10.11.53-11.85 1.66-2 1.28-3.09 4.45-3.09 9.36z"/><path class="cls-6" d="M297.46 118.67v9.13h-6.87v-8a13.81 13.81 0 0 0-6.49-11.92 21.15 21.15 0 0 0-12.37-3.47h-5.58v23.39h-6.56V76.37H266v21.55h4.53c5.36 0 9.43-1 12.37-2.93 3.62-2.41 5.43-5.26 5.43-8.5h6.87c0 1.65-.76 3.83-2.19 6.47a19.39 19.39 0 0 1-8.07 8.06c8.37 3.92 12.52 9.81 12.52 17.65zm-143.89 0v9.13h-6.87v-8a13.81 13.81 0 0 0-6.49-11.92 21.16 21.16 0 0 0-12.37-3.47h-5.58v23.39h-6.56V76.37h6.41v21.55h4.53c5.36 0 9.43-1 12.37-2.93 3.62-2.41 5.43-5.26 5.43-8.5h6.87c0 1.66-.76 3.84-2.19 6.47A19.39 19.39 0 0 1 141 101c8.41 3.94 12.56 9.83 12.56 17.67zm7.84-42.31h6.94v51.44h-6.95zm22.93 10v41.44h-6.64V86.38zm-6.56-10h6.41v6.41h-6.41zm56.74 31v20.44h-6.79v-19.39c0-5.43-.68-9.28-2.11-11.54q-2.83-4.53-10.19-4.53c-5.05 0-8.83 1-11.24 2.94-2.64 2.19-3.92 5.73-3.92 10.71v21.81h-6.64v-20.37c0-14.56 6.79-21.88 20.3-21.88 7.47 0 12.83 1.81 16.07 5.36 3 3.39 4.51 8.83 4.51 16.45zm15.69-21v41.44h-6.64V86.38zm-6.56-10H250v6.41h-6.41zm183.7 7.26h-.64c-4.19 0-6.29 2.56-6.29 7.67v9.3h-1.91v-9.17c0-6.51 2.81-9.78 8.47-9.78h.37zM339.25 101c-3.88 0-6.43-1.4-7.63-4.23-1.3 2.83-3.78 4.23-7.5 4.23q-4.62 0-6.73-2.66c-1.27-1.6-1.91-4-1.91-7.22V82h2v9.17q0 3.88 1.31 5.72c1 1.46 2.78 2.18 5.22 2.18a6.7 6.7 0 0 0 4.85-1.7 6.58 6.58 0 0 0 1.74-4.91V82h2v9.17c0 2.55.44 4.46 1.34 5.72 1 1.46 2.78 2.18 5.19 2.18 4.45 0 6.66-2.62 6.66-7.87V82h1.94v9.17c.03 6.56-2.82 9.83-8.48 9.83zm14.14-22.32h-2.24v-2.22h2.24zm-.1 3.23v18.65h-1.94V81.95zm21.44 12.72c0 2.76-.87 4.6-2.64 5.49-1.17.58-3.35.89-6.46.89-3.52 0-6-.75-7.3-2.21s-1.87-3.88-1.87-7.53.64-6.1 1.91-7.53 3.72-2.25 7.23-2.25 5.93.51 7.1 1.57 2 3.48 2 7a1.56 1.56 0 0 1-1.64 1.57h-14.57c0 2.86.5 4.81 1.47 5.83s2.88 1.54 5.66 1.54 4.79-.24 5.62-.72 1.47-1.74 1.47-3.61zm-2.58-4.87c.37 0 .57-.21.57-.61 0-2.49-.6-4.16-1.77-4.94-.84-.58-2.65-.85-5.36-.85s-4.39.37-5.39 1.19c-1.17.92-1.74 2.66-1.74 5.21zm22.41 1.6v9.2h-2v-9.14c0-2.55-.43-4.46-1.34-5.72-1-1.46-2.78-2.18-5.19-2.18-4.45 0-6.66 2.62-6.66 7.87v9.2h-1.94v-9.17c0-6.61 2.85-9.92 8.5-9.92q4.62 0 6.73 2.66c1.26 1.61 1.9 4.03 1.9 7.23zm21.3 3.27c0 2.76-.87 4.6-2.64 5.49-1.17.58-3.35.89-6.46.89-3.52 0-6-.75-7.3-2.21s-1.87-3.88-1.87-7.53.64-6.1 1.91-7.53 3.72-2.25 7.23-2.25 5.93.51 7.1 1.57 2 3.48 2 7a1.56 1.56 0 0 1-1.64 1.57h-14.57c0 2.86.5 4.81 1.47 5.83S404 99 406.75 99s4.79-.24 5.62-.72 1.47-1.74 1.47-3.61zm-2.58-4.87c.37 0 .57-.21.57-.61 0-2.49-.6-4.16-1.77-4.94-.84-.58-2.65-.85-5.36-.85s-4.39.37-5.39 1.19c-1.17.92-1.74 2.66-1.74 5.21z"/><path class="cls-4" d="M49.61 113.82c1-2.72 1.94-3.45 3.47-6.23 2.3-4.19 4.38-7.72 11-7.23 3.86.29 6.79 4.6 8.3 7.46.54 1 1.77 3 2.37 4.17s1.69 3.49.79 5.55-2.12 3.15-5.13 3.57c-1.78.25-3.85-.33-7.78-.33s-5.77.41-7.27.42a7.21 7.21 0 0 1-4.19-1.07 5.3 5.3 0 0 1-1.56-6.31zM53.43 96a15 15 0 0 1-3.2-5.71c-1.55-4.74 1.28-9.9 6.25-9.48 2.27.19 3.26 2.84 3.88 4.74a35.85 35.85 0 0 1 1.12 5.88c.35 3.49-1.16 6.51-3.81 6.83-1.93.22-3.81-1.67-4.24-2.26zm14.39-14.26C71 80.9 74 84 74.53 86.72a8.62 8.62 0 0 1-.87 5.54 22 22 0 0 1-2.41 4.05c-1.43 1.93-2.52 2.36-3.5 2.25-1.9-.2-2.66-2.19-3.16-3.7-1.37-4.11-.42-12.15 3.23-13.12zm7.31 24.82c-2.17-1-2.79-4.41-1.82-7.3a9.22 9.22 0 0 1 3.17-4.61c.71-.6 3-2.22 4.89-1.29 5.35 2.6 2.18 10.43-1.61 12.5-1 .55-2.91 1.49-4.63.7zm-34.55-6.71c-.77-3.12.79-5.81 2.85-6.54a4.94 4.94 0 0 1 4.27.76c2 1.29 3.58 4 4.25 6.68s.29 5.16-2 6c-4.76 1.68-8.58-3.65-9.37-6.9z"/><path class="cls-6" d="M451.23 104.75h1.94v3.82h5.26v1.87h-5.26v12.75c0 1.26.37 2 1.11 2.38a6.57 6.57 0 0 0 2.34.24h1.84v1.84h-1.84a8.08 8.08 0 0 1-4-.68c-.94-.61-1.41-1.84-1.41-3.78zm-118.6 13.7v9.2h-2v-9.17c0-2.55-.44-4.46-1.34-5.72-1-1.46-2.78-2.18-5.19-2.18-4.45 0-6.66 2.62-6.66 7.87v9.2h-1.94v-9.17q0-9.92 8.5-9.92 4.62 0 6.73 2.66c1.27 1.61 1.89 4.03 1.89 7.23zm21.3 3.27c0 2.76-.87 4.6-2.64 5.49-1.17.58-3.35.88-6.46.88-3.52 0-6-.75-7.3-2.21s-1.87-3.89-1.87-7.53.64-6.1 1.91-7.53 3.72-2.25 7.23-2.25 5.93.51 7.1 1.57 2 3.47 2 7a1.56 1.56 0 0 1-1.64 1.57h-14.57c0 2.86.5 4.8 1.47 5.83s2.88 1.53 5.66 1.53 4.79-.24 5.62-.72 1.47-1.74 1.47-3.61zm-2.58-4.87c.37 0 .57-.2.57-.61 0-2.49-.6-4.16-1.77-4.94-.84-.58-2.65-.85-5.36-.85s-4.39.38-5.39 1.19c-1.17.92-1.74 2.66-1.74 5.21zm5.33 1.36V109h2v9.17c0 2.56.43 4.46 1.34 5.73 1 1.46 2.78 2.18 5.19 2.18 4.45 0 6.66-2.62 6.66-7.87V109h1.94v9.17c0 6.61-2.85 9.92-8.5 9.92q-4.62 0-6.73-2.66c-1.26-1.59-1.9-4.01-1.9-7.22zm39.09 4.53c0 3.58-3.11 5.35-9.34 5.35a13.51 13.51 0 0 1-6.43-1.33 5.7 5.7 0 0 1-3.18-5.38v-.31h1.91v.27c0 3.2 2.58 4.81 7.7 4.81 4.86 0 7.3-1.12 7.3-3.41 0-1.5-.9-2.52-2.75-3.07a34.68 34.68 0 0 0-4.55-.58 25.45 25.45 0 0 1-5.66-1 4.24 4.24 0 0 1-3.11-4.19c0-3.58 2.91-5.38 8.74-5.38 6 0 9 1.94 9 5.83l-1.81.14c0-2.73-2.38-4-7.16-4-4.59 0-6.9 1.16-6.9 3.44 0 1.23.91 2.11 2.75 2.59a27.86 27.86 0 0 0 4.15.58 29 29 0 0 1 6.16 1 4.62 4.62 0 0 1 3.18 4.65zm2.76-18h1.94v3.82h5.26v1.87h-5.26v12.75c0 1.26.37 2 1.11 2.38a6.57 6.57 0 0 0 2.34.24h1.84v1.84h-1.84a8.09 8.09 0 0 1-4-.68c-.94-.61-1.41-1.84-1.41-3.78zm28.41 13.53v9.37h-2.28v-1.84a11.31 11.31 0 0 1-3 1.67 11.86 11.86 0 0 1-3.21.58c-5.79 0-8.7-3.27-8.7-9.78 0-3.17.63-5.59 1.91-7.16 1.41-1.74 3.65-2.59 6.7-2.59s5.32.85 6.73 2.59q1.84 2.37 1.84 7.17zm-1.94.34a10.69 10.69 0 0 0-1.24-5.76c-1-1.6-2.68-2.39-5.05-2.39s-4.32.61-5.46 1.81-1.67 3.07-1.67 5.62a10.82 10.82 0 0 0 1.24 5.79c1 1.6 2.75 2.38 5.12 2.38s4.32-.61 5.42-1.81 1.64-3.07 1.64-5.63zm5.77-.27q0-4.8 1.91-7.16c1.41-1.74 3.65-2.59 6.73-2.59a10.94 10.94 0 0 1 3.25.55 11.21 11.21 0 0 1 3.08 1.67v-6.16h2v13.69c0 3.2-.57 5.59-1.74 7.12-1.34 1.77-3.55 2.62-6.59 2.62s-5.32-.85-6.73-2.59q-1.92-2.33-1.92-7.14zm1.88 0c0 5.21 2.28 7.8 6.83 7.8 2.38 0 4.05-.75 5.06-2.28a10.44 10.44 0 0 0 1.24-5.69c0-2.56-.44-4.43-1.34-5.66-1-1.4-2.78-2.11-5.19-2.11s-4.25.72-5.29 2.15c-.89 1.27-1.32 3.21-1.32 5.83z"/></g></g></svg>